<mxfile host="65bd71144e" modified="2020-12-20T20:19:52.961Z" agent="5.0 (X11; Linux x86_64) AppleWebKit/537.36 (KHTML, like Gecko) Code/1.51.1 Chrome/83.0.4103.122 Electron/9.3.3 Safari/537.36" etag="EXxMz8cuHQ3mH4pIdgvI" version="13.10.0" type="embed" pages="2">
    <diagram id="MNB6X9TEEGB0Q-GgBc4c" name="EndPointTestingFlow">
        <mxGraphModel dx="4333" dy="513" grid="1" gridSize="10" guides="1" tooltips="1" connect="1" arrows="1" fold="1" page="1" pageScale="1" pageWidth="3300" pageHeight="4681" math="0" shadow="0">
            <root>
                <mxCell id="0"/>
                <mxCell id="1" parent="0"/>
                <mxCell id="2" value="" style="rounded=0;whiteSpace=wrap;html=1;" parent="1" vertex="1">
                    <mxGeometry x="-190" y="800" width="1090" height="540" as="geometry"/>
                </mxCell>
                <mxCell id="3" value="Endpoint Testing Flow" style="text;html=1;strokeColor=none;fillColor=none;align=center;verticalAlign=middle;whiteSpace=wrap;rounded=0;fontSize=24;fontStyle=1" parent="1" vertex="1">
                    <mxGeometry x="-180" y="830" width="280" height="20" as="geometry"/>
                </mxCell>
                <mxCell id="4" value="UI-Design-Client" style="rounded=0;whiteSpace=wrap;html=1;fontSize=24;" parent="1" vertex="1">
                    <mxGeometry x="-10" y="910" width="180" height="60" as="geometry"/>
                </mxCell>
                <mxCell id="10" value="&lt;font style=&quot;font-size: 14px ; line-height: 60%&quot;&gt;1. Send ServiceComponent Pool&lt;br style=&quot;font-size: 14px&quot;&gt;&lt;div style=&quot;font-size: 14px&quot;&gt;&lt;span style=&quot;font-size: 14px&quot;&gt;(Json Format)&lt;/span&gt;&lt;/div&gt;&lt;div style=&quot;font-size: 14px&quot;&gt;&lt;span&gt;&lt;br&gt;&lt;/span&gt;&lt;/div&gt;&lt;div style=&quot;font-size: 14px&quot;&gt;&lt;span&gt;2. get ServiceComponent from db&lt;/span&gt;&lt;/div&gt;&lt;/font&gt;" style="text;html=1;strokeColor=none;fillColor=none;align=center;verticalAlign=middle;whiteSpace=wrap;rounded=0;fontSize=14;" parent="1" vertex="1">
                    <mxGeometry x="170" y="900" width="220" height="20" as="geometry"/>
                </mxCell>
                <mxCell id="7" value="" style="group" parent="1" vertex="1" connectable="0">
                    <mxGeometry x="400" y="880" width="270" height="160" as="geometry"/>
                </mxCell>
                <mxCell id="5" value="" style="rounded=1;whiteSpace=wrap;html=1;fontSize=24;" parent="7" vertex="1">
                    <mxGeometry x="-10" width="270" height="160" as="geometry"/>
                </mxCell>
                <mxCell id="14" value="UI-Design-Server" style="text;html=1;strokeColor=none;fillColor=none;align=center;verticalAlign=middle;whiteSpace=wrap;rounded=0;fontSize=18;fontStyle=1" parent="7" vertex="1">
                    <mxGeometry x="37.76041666666667" y="4.71" width="174.47916666666669" height="18.82" as="geometry"/>
                </mxCell>
                <mxCell id="16" value="&lt;b&gt;Freemarker&lt;br&gt;Gen Testcases&lt;/b&gt;" style="rounded=0;whiteSpace=wrap;html=1;fontSize=14;" parent="7" vertex="1">
                    <mxGeometry x="135.42000000000002" y="37.64705882352941" width="114.58333333333334" height="37.64705882352941" as="geometry"/>
                </mxCell>
                <mxCell id="17" value="&lt;b&gt;RestController&lt;/b&gt;" style="rounded=0;whiteSpace=wrap;html=1;fontSize=14;" parent="7" vertex="1">
                    <mxGeometry x="10.416666666666668" y="37.64705882352941" width="104.16666666666667" height="37.64705882352941" as="geometry"/>
                </mxCell>
                <mxCell id="20" value="&lt;b&gt;Repository&lt;/b&gt;" style="rounded=0;whiteSpace=wrap;html=1;fontSize=14;" parent="7" vertex="1">
                    <mxGeometry x="10.416666666666668" y="99.99764705882352" width="104.16666666666667" height="37.64705882352941" as="geometry"/>
                </mxCell>
                <mxCell id="26" value="" style="endArrow=classic;html=1;fontSize=18;exitX=1;exitY=0.5;exitDx=0;exitDy=0;entryX=0;entryY=0.5;entryDx=0;entryDy=0;" parent="7" source="17" target="16" edge="1">
                    <mxGeometry width="50" height="50" relative="1" as="geometry">
                        <mxPoint x="90" y="300" as="sourcePoint"/>
                        <mxPoint x="140" y="250" as="targetPoint"/>
                    </mxGeometry>
                </mxCell>
                <mxCell id="27" value="" style="endArrow=classic;html=1;fontSize=18;exitX=0.5;exitY=1;exitDx=0;exitDy=0;entryX=0.5;entryY=0;entryDx=0;entryDy=0;" parent="7" source="17" target="20" edge="1">
                    <mxGeometry width="50" height="50" relative="1" as="geometry">
                        <mxPoint x="90" y="300" as="sourcePoint"/>
                        <mxPoint x="140" y="250" as="targetPoint"/>
                    </mxGeometry>
                </mxCell>
                <mxCell id="13" value="&lt;font style=&quot;font-size: 18px&quot;&gt;Jest Server&lt;/font&gt;" style="rounded=0;whiteSpace=wrap;html=1;" parent="1" vertex="1">
                    <mxGeometry x="770" y="920" width="120" height="60" as="geometry"/>
                </mxCell>
                <mxCell id="12" value="" style="endArrow=classic;html=1;fontSize=14;exitX=1;exitY=0.5;exitDx=0;exitDy=0;" parent="1" source="16" target="13" edge="1">
                    <mxGeometry x="-50" y="750" width="50" height="50" as="geometry">
                        <mxPoint x="560" y="940" as="sourcePoint"/>
                        <mxPoint x="587.5" y="890" as="targetPoint"/>
                    </mxGeometry>
                </mxCell>
                <mxCell id="18" value="&lt;b&gt;ServiceComponent&lt;br&gt;DB&lt;/b&gt;" style="shape=cylinder3;whiteSpace=wrap;html=1;boundedLbl=1;backgroundOutline=1;size=15;fontSize=14;" parent="1" vertex="1">
                    <mxGeometry x="250" y="1100" width="140" height="80" as="geometry"/>
                </mxCell>
                <mxCell id="22" value="" style="endArrow=classic;html=1;fontSize=18;exitX=0.5;exitY=1;exitDx=0;exitDy=0;entryX=0.5;entryY=0;entryDx=0;entryDy=0;entryPerimeter=0;startArrow=classic;startFill=1;" parent="1" source="20" target="18" edge="1">
                    <mxGeometry width="50" height="50" relative="1" as="geometry">
                        <mxPoint x="490" y="1180" as="sourcePoint"/>
                        <mxPoint x="540" y="1130" as="targetPoint"/>
                    </mxGeometry>
                </mxCell>
                <mxCell id="23" value="" style="endArrow=classic;html=1;fontSize=18;exitX=1;exitY=0.5;exitDx=0;exitDy=0;entryX=0;entryY=0.5;entryDx=0;entryDy=0;" parent="1" source="4" target="17" edge="1">
                    <mxGeometry width="50" height="50" relative="1" as="geometry">
                        <mxPoint x="490" y="1180" as="sourcePoint"/>
                        <mxPoint x="540" y="1130" as="targetPoint"/>
                    </mxGeometry>
                </mxCell>
                <mxCell id="29" value="" style="curved=1;endArrow=classic;html=1;fontSize=18;exitX=0.75;exitY=1;exitDx=0;exitDy=0;entryX=0.355;entryY=0.988;entryDx=0;entryDy=0;entryPerimeter=0;" parent="1" source="13" target="13" edge="1">
                    <mxGeometry width="50" height="50" relative="1" as="geometry">
                        <mxPoint x="650" y="1100" as="sourcePoint"/>
                        <mxPoint x="700" y="1050" as="targetPoint"/>
                        <Array as="points">
                            <mxPoint x="820" y="1010"/>
                        </Array>
                    </mxGeometry>
                </mxCell>
                <mxCell id="30" value="Run Testcases&lt;br&gt;return log" style="text;html=1;strokeColor=none;fillColor=none;align=center;verticalAlign=middle;whiteSpace=wrap;rounded=0;fontSize=18;" parent="1" vertex="1">
                    <mxGeometry x="770" y="1010" width="130" height="20" as="geometry"/>
                </mxCell>
                <mxCell id="31" value="Matchmaking Server" style="rounded=0;whiteSpace=wrap;html=1;fontSize=24;" parent="1" vertex="1">
                    <mxGeometry x="-180" y="1110" width="240" height="60" as="geometry"/>
                </mxCell>
                <mxCell id="32" value="R-Tree Index Server" style="rounded=0;whiteSpace=wrap;html=1;fontSize=24;" parent="1" vertex="1">
                    <mxGeometry x="60" y="1260" width="240" height="60" as="geometry"/>
                </mxCell>
                <mxCell id="33" value="" style="endArrow=classic;html=1;fontSize=18;exitX=0.5;exitY=1;exitDx=0;exitDy=0;entryX=0.5;entryY=0;entryDx=0;entryDy=0;" parent="1" source="31" target="32" edge="1">
                    <mxGeometry width="50" height="50" relative="1" as="geometry">
                        <mxPoint x="390" y="1230" as="sourcePoint"/>
                        <mxPoint x="440" y="1180" as="targetPoint"/>
                    </mxGeometry>
                </mxCell>
                <mxCell id="34" value="" style="endArrow=classic;html=1;fontSize=18;exitX=1;exitY=0.5;exitDx=0;exitDy=0;entryX=0;entryY=0.5;entryDx=0;entryDy=0;entryPerimeter=0;" parent="1" source="31" target="18" edge="1">
                    <mxGeometry width="50" height="50" relative="1" as="geometry">
                        <mxPoint x="390" y="1230" as="sourcePoint"/>
                        <mxPoint x="440" y="1180" as="targetPoint"/>
                    </mxGeometry>
                </mxCell>
                <mxCell id="35" value="" style="endArrow=classic;html=1;fontSize=18;exitX=0.5;exitY=1;exitDx=0;exitDy=0;entryX=0.5;entryY=0;entryDx=0;entryDy=0;startArrow=classic;startFill=1;" parent="1" source="4" target="31" edge="1">
                    <mxGeometry width="50" height="50" relative="1" as="geometry">
                        <mxPoint x="390" y="1230" as="sourcePoint"/>
                        <mxPoint x="440" y="1180" as="targetPoint"/>
                    </mxGeometry>
                </mxCell>
                <mxCell id="37" value="Query ServiceComponent By (ServiceName, ArgName)" style="text;html=1;strokeColor=none;fillColor=none;align=center;verticalAlign=middle;whiteSpace=wrap;rounded=0;fontSize=18;" parent="1" vertex="1">
                    <mxGeometry x="-140" y="1030" width="250" height="20" as="geometry"/>
                </mxCell>
                <mxCell id="38" value="Query ServiceComponent Statge1 by index on ServiceName" style="text;html=1;strokeColor=none;fillColor=none;align=center;verticalAlign=middle;whiteSpace=wrap;rounded=0;fontSize=18;" parent="1" vertex="1">
                    <mxGeometry x="-140" y="1210" width="280" height="20" as="geometry"/>
                </mxCell>
                <mxCell id="39" value="TypeScript File" style="text;html=1;strokeColor=none;fillColor=none;align=center;verticalAlign=middle;whiteSpace=wrap;rounded=0;fontSize=13;" parent="1" vertex="1">
                    <mxGeometry x="670" y="910" width="90" height="20" as="geometry"/>
                </mxCell>
            </root>
        </mxGraphModel>
    </diagram>
    <diagram id="iEixrWr6Yk6Nu90WhQMT" name="ServiceComponentPool">
        <mxGraphModel dx="4333" dy="513" grid="1" gridSize="10" guides="1" tooltips="1" connect="1" arrows="1" fold="1" page="1" pageScale="1" pageWidth="3300" pageHeight="4681" math="0" shadow="0">
            <root>
                <mxCell id="0erPDwqDep3eA_Y_kaLx-0"/>
                <mxCell id="0erPDwqDep3eA_Y_kaLx-1" parent="0erPDwqDep3eA_Y_kaLx-0"/>
                <mxCell id="0erPDwqDep3eA_Y_kaLx-2" value="ServiceComponent" style="swimlane;fontStyle=1;align=center;verticalAlign=top;childLayout=stackLayout;horizontal=1;startSize=26;horizontalStack=0;resizeParent=1;resizeParentMax=0;resizeLast=0;collapsible=1;marginBottom=0;fontSize=13;" parent="0erPDwqDep3eA_Y_kaLx-1" vertex="1">
                    <mxGeometry x="320" y="200" width="280" height="294" as="geometry"/>
                </mxCell>
                <mxCell id="0erPDwqDep3eA_Y_kaLx-21" value="- serviceID: String" style="text;strokeColor=none;fillColor=none;align=left;verticalAlign=top;spacingLeft=4;spacingRight=4;overflow=hidden;rotatable=0;points=[[0,0.5],[1,0.5]];portConstraint=eastwest;" parent="0erPDwqDep3eA_Y_kaLx-2" vertex="1">
                    <mxGeometry y="26" width="280" height="26" as="geometry"/>
                </mxCell>
                <mxCell id="0erPDwqDep3eA_Y_kaLx-3" value="- arguments: Array&lt;Argument&gt;" style="text;strokeColor=none;fillColor=none;align=left;verticalAlign=top;spacingLeft=4;spacingRight=4;overflow=hidden;rotatable=0;points=[[0,0.5],[1,0.5]];portConstraint=eastwest;" parent="0erPDwqDep3eA_Y_kaLx-2" vertex="1">
                    <mxGeometry y="52" width="280" height="26" as="geometry"/>
                </mxCell>
                <mxCell id="0erPDwqDep3eA_Y_kaLx-23" value="- projectName: String" style="text;strokeColor=none;fillColor=none;align=left;verticalAlign=top;spacingLeft=4;spacingRight=4;overflow=hidden;rotatable=0;points=[[0,0.5],[1,0.5]];portConstraint=eastwest;" parent="0erPDwqDep3eA_Y_kaLx-2" vertex="1">
                    <mxGeometry y="78" width="280" height="26" as="geometry"/>
                </mxCell>
                <mxCell id="0erPDwqDep3eA_Y_kaLx-20" value="- className: String" style="text;strokeColor=none;fillColor=none;align=left;verticalAlign=top;spacingLeft=4;spacingRight=4;overflow=hidden;rotatable=0;points=[[0,0.5],[1,0.5]];portConstraint=eastwest;" parent="0erPDwqDep3eA_Y_kaLx-2" vertex="1">
                    <mxGeometry y="104" width="280" height="26" as="geometry"/>
                </mxCell>
                <mxCell id="0erPDwqDep3eA_Y_kaLx-22" value="- wsdlName: String" style="text;strokeColor=none;fillColor=none;align=left;verticalAlign=top;spacingLeft=4;spacingRight=4;overflow=hidden;rotatable=0;points=[[0,0.5],[1,0.5]];portConstraint=eastwest;" parent="0erPDwqDep3eA_Y_kaLx-2" vertex="1">
                    <mxGeometry y="130" width="280" height="26" as="geometry"/>
                </mxCell>
                <mxCell id="0erPDwqDep3eA_Y_kaLx-19" value="- type: String" style="text;strokeColor=none;fillColor=none;align=left;verticalAlign=top;spacingLeft=4;spacingRight=4;overflow=hidden;rotatable=0;points=[[0,0.5],[1,0.5]];portConstraint=eastwest;" parent="0erPDwqDep3eA_Y_kaLx-2" vertex="1">
                    <mxGeometry y="156" width="280" height="26" as="geometry"/>
                </mxCell>
                <mxCell id="0erPDwqDep3eA_Y_kaLx-24" value="- argComplexTypeUrl: Map&lt;String,ComplexType&gt;" style="text;strokeColor=none;fillColor=none;align=left;verticalAlign=top;spacingLeft=4;spacingRight=4;overflow=hidden;rotatable=0;points=[[0,0.5],[1,0.5]];portConstraint=eastwest;" parent="0erPDwqDep3eA_Y_kaLx-2" vertex="1">
                    <mxGeometry y="182" width="280" height="26" as="geometry"/>
                </mxCell>
                <mxCell id="0erPDwqDep3eA_Y_kaLx-15" value="- return: Return" style="text;strokeColor=none;fillColor=none;align=left;verticalAlign=top;spacingLeft=4;spacingRight=4;overflow=hidden;rotatable=0;points=[[0,0.5],[1,0.5]];portConstraint=eastwest;" parent="0erPDwqDep3eA_Y_kaLx-2" vertex="1">
                    <mxGeometry y="208" width="280" height="26" as="geometry"/>
                </mxCell>
                <mxCell id="0erPDwqDep3eA_Y_kaLx-25" value="- log: String" style="text;strokeColor=none;fillColor=none;align=left;verticalAlign=top;spacingLeft=4;spacingRight=4;overflow=hidden;rotatable=0;points=[[0,0.5],[1,0.5]];portConstraint=eastwest;" parent="0erPDwqDep3eA_Y_kaLx-2" vertex="1">
                    <mxGeometry y="234" width="280" height="26" as="geometry"/>
                </mxCell>
                <mxCell id="0erPDwqDep3eA_Y_kaLx-27" value="- name: String" style="text;strokeColor=none;fillColor=none;align=left;verticalAlign=top;spacingLeft=4;spacingRight=4;overflow=hidden;rotatable=0;points=[[0,0.5],[1,0.5]];portConstraint=eastwest;" parent="0erPDwqDep3eA_Y_kaLx-2" vertex="1">
                    <mxGeometry y="260" width="280" height="26" as="geometry"/>
                </mxCell>
                <mxCell id="0erPDwqDep3eA_Y_kaLx-4" value="" style="line;strokeWidth=1;fillColor=none;align=left;verticalAlign=middle;spacingTop=-1;spacingLeft=3;spacingRight=3;rotatable=0;labelPosition=right;points=[];portConstraint=eastwest;" parent="0erPDwqDep3eA_Y_kaLx-2" vertex="1">
                    <mxGeometry y="286" width="280" height="8" as="geometry"/>
                </mxCell>
                <mxCell id="0erPDwqDep3eA_Y_kaLx-6" value="Argument" style="swimlane;fontStyle=1;align=center;verticalAlign=top;childLayout=stackLayout;horizontal=1;startSize=26;horizontalStack=0;resizeParent=1;resizeParentMax=0;resizeLast=0;collapsible=1;marginBottom=0;fontSize=13;" parent="0erPDwqDep3eA_Y_kaLx-1" vertex="1">
                    <mxGeometry x="620" y="350" width="190" height="111" as="geometry"/>
                </mxCell>
                <mxCell id="0erPDwqDep3eA_Y_kaLx-7" value="- arguments: Array&lt;Argument&gt;" style="text;strokeColor=none;fillColor=none;align=left;verticalAlign=top;spacingLeft=4;spacingRight=4;overflow=hidden;rotatable=0;points=[[0,0.5],[1,0.5]];portConstraint=eastwest;" parent="0erPDwqDep3eA_Y_kaLx-6" vertex="1">
                    <mxGeometry y="26" width="190" height="26" as="geometry"/>
                </mxCell>
                <mxCell id="0erPDwqDep3eA_Y_kaLx-29" value="- isComplexType: Bool" style="text;strokeColor=none;fillColor=none;align=left;verticalAlign=top;spacingLeft=4;spacingRight=4;overflow=hidden;rotatable=0;points=[[0,0.5],[1,0.5]];portConstraint=eastwest;" parent="0erPDwqDep3eA_Y_kaLx-6" vertex="1">
                    <mxGeometry y="52" width="190" height="25" as="geometry"/>
                </mxCell>
                <mxCell id="0erPDwqDep3eA_Y_kaLx-31" value="- name: String" style="text;strokeColor=none;fillColor=none;align=left;verticalAlign=top;spacingLeft=4;spacingRight=4;overflow=hidden;rotatable=0;points=[[0,0.5],[1,0.5]];portConstraint=eastwest;" parent="0erPDwqDep3eA_Y_kaLx-6" vertex="1">
                    <mxGeometry y="77" width="190" height="26" as="geometry"/>
                </mxCell>
                <mxCell id="0erPDwqDep3eA_Y_kaLx-8" value="" style="line;strokeWidth=1;fillColor=none;align=left;verticalAlign=middle;spacingTop=-1;spacingLeft=3;spacingRight=3;rotatable=0;labelPosition=right;points=[];portConstraint=eastwest;" parent="0erPDwqDep3eA_Y_kaLx-6" vertex="1">
                    <mxGeometry y="103" width="190" height="8" as="geometry"/>
                </mxCell>
                <mxCell id="0erPDwqDep3eA_Y_kaLx-17" value="" style="endArrow=classic;html=1;fontSize=13;exitX=1;exitY=0.5;exitDx=0;exitDy=0;entryX=0.75;entryY=0;entryDx=0;entryDy=0;" parent="0erPDwqDep3eA_Y_kaLx-6" source="0erPDwqDep3eA_Y_kaLx-7" target="0erPDwqDep3eA_Y_kaLx-6" edge="1">
                    <mxGeometry width="50" height="50" relative="1" as="geometry">
                        <mxPoint x="-110" y="-10" as="sourcePoint"/>
                        <mxPoint x="192" y="12" as="targetPoint"/>
                        <Array as="points">
                            <mxPoint x="200" y="39"/>
                            <mxPoint x="200" y="10"/>
                            <mxPoint x="200" y="-20"/>
                            <mxPoint x="170" y="-20"/>
                            <mxPoint x="142" y="-20"/>
                        </Array>
                    </mxGeometry>
                </mxCell>
                <mxCell id="0erPDwqDep3eA_Y_kaLx-10" value="" style="endArrow=classic;html=1;fontSize=13;exitX=1;exitY=0.5;exitDx=0;exitDy=0;entryX=0.5;entryY=0;entryDx=0;entryDy=0;" parent="0erPDwqDep3eA_Y_kaLx-1" source="0erPDwqDep3eA_Y_kaLx-3" target="0erPDwqDep3eA_Y_kaLx-6" edge="1">
                    <mxGeometry width="50" height="50" relative="1" as="geometry">
                        <mxPoint x="510" y="360" as="sourcePoint"/>
                        <mxPoint x="560" y="310" as="targetPoint"/>
                        <Array as="points">
                            <mxPoint x="715" y="265"/>
                        </Array>
                    </mxGeometry>
                </mxCell>
                <mxCell id="0erPDwqDep3eA_Y_kaLx-11" value="Return" style="swimlane;fontStyle=1;align=center;verticalAlign=top;childLayout=stackLayout;horizontal=1;startSize=26;horizontalStack=0;resizeParent=1;resizeParentMax=0;resizeLast=0;collapsible=1;marginBottom=0;fontSize=13;" parent="0erPDwqDep3eA_Y_kaLx-1" vertex="1">
                    <mxGeometry x="150" y="470" width="160" height="60" as="geometry"/>
                </mxCell>
                <mxCell id="0erPDwqDep3eA_Y_kaLx-12" value="+ dataFormat: Object" style="text;strokeColor=none;fillColor=none;align=left;verticalAlign=top;spacingLeft=4;spacingRight=4;overflow=hidden;rotatable=0;points=[[0,0.5],[1,0.5]];portConstraint=eastwest;" parent="0erPDwqDep3eA_Y_kaLx-11" vertex="1">
                    <mxGeometry y="26" width="160" height="26" as="geometry"/>
                </mxCell>
                <mxCell id="0erPDwqDep3eA_Y_kaLx-13" value="" style="line;strokeWidth=1;fillColor=none;align=left;verticalAlign=middle;spacingTop=-1;spacingLeft=3;spacingRight=3;rotatable=0;labelPosition=right;points=[];portConstraint=eastwest;" parent="0erPDwqDep3eA_Y_kaLx-11" vertex="1">
                    <mxGeometry y="52" width="160" height="8" as="geometry"/>
                </mxCell>
                <mxCell id="0erPDwqDep3eA_Y_kaLx-32" value="" style="endArrow=classic;html=1;fontSize=13;exitX=0;exitY=0.5;exitDx=0;exitDy=0;entryX=0.5;entryY=0;entryDx=0;entryDy=0;" parent="0erPDwqDep3eA_Y_kaLx-1" source="0erPDwqDep3eA_Y_kaLx-15" target="0erPDwqDep3eA_Y_kaLx-11" edge="1">
                    <mxGeometry width="50" height="50" relative="1" as="geometry">
                        <mxPoint x="490" y="450" as="sourcePoint"/>
                        <mxPoint x="540" y="400" as="targetPoint"/>
                        <Array as="points">
                            <mxPoint x="230" y="421"/>
                        </Array>
                    </mxGeometry>
                </mxCell>
                <mxCell id="0erPDwqDep3eA_Y_kaLx-35" value="ComplexType" style="swimlane;fontStyle=1;align=center;verticalAlign=top;childLayout=stackLayout;horizontal=1;startSize=26;horizontalStack=0;resizeParent=1;resizeParentMax=0;resizeLast=0;collapsible=1;marginBottom=0;fontSize=13;" parent="0erPDwqDep3eA_Y_kaLx-1" vertex="1">
                    <mxGeometry x="-50" y="480" width="190" height="112" as="geometry"/>
                </mxCell>
                <mxCell id="0erPDwqDep3eA_Y_kaLx-36" value="- url: String" style="text;strokeColor=none;fillColor=none;align=left;verticalAlign=top;spacingLeft=4;spacingRight=4;overflow=hidden;rotatable=0;points=[[0,0.5],[1,0.5]];portConstraint=eastwest;" parent="0erPDwqDep3eA_Y_kaLx-35" vertex="1">
                    <mxGeometry y="26" width="190" height="26" as="geometry"/>
                </mxCell>
                <mxCell id="0erPDwqDep3eA_Y_kaLx-40" value="- args: Array&lt;ComplexTypeArg&gt;" style="text;strokeColor=none;fillColor=none;align=left;verticalAlign=top;spacingLeft=4;spacingRight=4;overflow=hidden;rotatable=0;points=[[0,0.5],[1,0.5]];portConstraint=eastwest;" parent="0erPDwqDep3eA_Y_kaLx-35" vertex="1">
                    <mxGeometry y="52" width="190" height="26" as="geometry"/>
                </mxCell>
                <mxCell id="0erPDwqDep3eA_Y_kaLx-37" value="" style="line;strokeWidth=1;fillColor=none;align=left;verticalAlign=middle;spacingTop=-1;spacingLeft=3;spacingRight=3;rotatable=0;labelPosition=right;points=[];portConstraint=eastwest;" parent="0erPDwqDep3eA_Y_kaLx-35" vertex="1">
                    <mxGeometry y="78" width="190" height="8" as="geometry"/>
                </mxCell>
                <mxCell id="0erPDwqDep3eA_Y_kaLx-38" value="+ method(type): type" style="text;strokeColor=none;fillColor=none;align=left;verticalAlign=top;spacingLeft=4;spacingRight=4;overflow=hidden;rotatable=0;points=[[0,0.5],[1,0.5]];portConstraint=eastwest;" parent="0erPDwqDep3eA_Y_kaLx-35" vertex="1">
                    <mxGeometry y="86" width="190" height="26" as="geometry"/>
                </mxCell>
                <mxCell id="0erPDwqDep3eA_Y_kaLx-39" value="" style="endArrow=classic;html=1;fontSize=13;exitX=0;exitY=0.5;exitDx=0;exitDy=0;entryX=0.5;entryY=0;entryDx=0;entryDy=0;" parent="0erPDwqDep3eA_Y_kaLx-1" source="0erPDwqDep3eA_Y_kaLx-24" target="0erPDwqDep3eA_Y_kaLx-35" edge="1">
                    <mxGeometry width="50" height="50" relative="1" as="geometry">
                        <mxPoint x="260" y="480" as="sourcePoint"/>
                        <mxPoint x="310" y="430" as="targetPoint"/>
                        <Array as="points">
                            <mxPoint x="45" y="395"/>
                        </Array>
                    </mxGeometry>
                </mxCell>
                <mxCell id="0erPDwqDep3eA_Y_kaLx-41" value="ComplexTypeArg" style="swimlane;fontStyle=1;align=center;verticalAlign=top;childLayout=stackLayout;horizontal=1;startSize=26;horizontalStack=0;resizeParent=1;resizeParentMax=0;resizeLast=0;collapsible=1;marginBottom=0;fontSize=13;" parent="0erPDwqDep3eA_Y_kaLx-1" vertex="1">
                    <mxGeometry x="300" y="570" width="160" height="112" as="geometry"/>
                </mxCell>
                <mxCell id="0erPDwqDep3eA_Y_kaLx-42" value="- name: String" style="text;strokeColor=none;fillColor=none;align=left;verticalAlign=top;spacingLeft=4;spacingRight=4;overflow=hidden;rotatable=0;points=[[0,0.5],[1,0.5]];portConstraint=eastwest;" parent="0erPDwqDep3eA_Y_kaLx-41" vertex="1">
                    <mxGeometry y="26" width="160" height="26" as="geometry"/>
                </mxCell>
                <mxCell id="0erPDwqDep3eA_Y_kaLx-46" value="- setterUrl: String" style="text;strokeColor=none;fillColor=none;align=left;verticalAlign=top;spacingLeft=4;spacingRight=4;overflow=hidden;rotatable=0;points=[[0,0.5],[1,0.5]];portConstraint=eastwest;" parent="0erPDwqDep3eA_Y_kaLx-41" vertex="1">
                    <mxGeometry y="52" width="160" height="26" as="geometry"/>
                </mxCell>
                <mxCell id="0erPDwqDep3eA_Y_kaLx-47" value="- type: String" style="text;strokeColor=none;fillColor=none;align=left;verticalAlign=top;spacingLeft=4;spacingRight=4;overflow=hidden;rotatable=0;points=[[0,0.5],[1,0.5]];portConstraint=eastwest;" parent="0erPDwqDep3eA_Y_kaLx-41" vertex="1">
                    <mxGeometry y="78" width="160" height="26" as="geometry"/>
                </mxCell>
                <mxCell id="0erPDwqDep3eA_Y_kaLx-43" value="" style="line;strokeWidth=1;fillColor=none;align=left;verticalAlign=middle;spacingTop=-1;spacingLeft=3;spacingRight=3;rotatable=0;labelPosition=right;points=[];portConstraint=eastwest;" parent="0erPDwqDep3eA_Y_kaLx-41" vertex="1">
                    <mxGeometry y="104" width="160" height="8" as="geometry"/>
                </mxCell>
                <mxCell id="0erPDwqDep3eA_Y_kaLx-45" value="" style="endArrow=classic;html=1;fontSize=13;exitX=1;exitY=0.5;exitDx=0;exitDy=0;entryX=0.5;entryY=0;entryDx=0;entryDy=0;" parent="0erPDwqDep3eA_Y_kaLx-1" source="0erPDwqDep3eA_Y_kaLx-40" target="0erPDwqDep3eA_Y_kaLx-41" edge="1">
                    <mxGeometry width="50" height="50" relative="1" as="geometry">
                        <mxPoint x="160" y="610" as="sourcePoint"/>
                        <mxPoint x="210" y="560" as="targetPoint"/>
                        <Array as="points">
                            <mxPoint x="380" y="545"/>
                        </Array>
                    </mxGeometry>
                </mxCell>
                <mxCell id="2sq5jm2HoF0Ie1UqEHPL-0" value="PipelineStorage" style="swimlane;fontStyle=1;align=center;verticalAlign=top;childLayout=stackLayout;horizontal=1;startSize=26;horizontalStack=0;resizeParent=1;resizeParentMax=0;resizeLast=0;collapsible=1;marginBottom=0;" vertex="1" parent="0erPDwqDep3eA_Y_kaLx-1">
                    <mxGeometry x="20" y="90" width="340" height="60" as="geometry"/>
                </mxCell>
                <mxCell id="2sq5jm2HoF0Ie1UqEHPL-1" value="- serviceComponentPool: Map&lt;serviceID,ServiceComponent&gt;" style="text;strokeColor=none;fillColor=none;align=left;verticalAlign=top;spacingLeft=4;spacingRight=4;overflow=hidden;rotatable=0;points=[[0,0.5],[1,0.5]];portConstraint=eastwest;" vertex="1" parent="2sq5jm2HoF0Ie1UqEHPL-0">
                    <mxGeometry y="26" width="340" height="26" as="geometry"/>
                </mxCell>
                <mxCell id="2sq5jm2HoF0Ie1UqEHPL-2" value="" style="line;strokeWidth=1;fillColor=none;align=left;verticalAlign=middle;spacingTop=-1;spacingLeft=3;spacingRight=3;rotatable=0;labelPosition=right;points=[];portConstraint=eastwest;" vertex="1" parent="2sq5jm2HoF0Ie1UqEHPL-0">
                    <mxGeometry y="52" width="340" height="8" as="geometry"/>
                </mxCell>
                <mxCell id="2sq5jm2HoF0Ie1UqEHPL-4" value="" style="endArrow=classic;html=1;exitX=1;exitY=0.5;exitDx=0;exitDy=0;entryX=0.5;entryY=0;entryDx=0;entryDy=0;" edge="1" parent="0erPDwqDep3eA_Y_kaLx-1" source="2sq5jm2HoF0Ie1UqEHPL-1" target="0erPDwqDep3eA_Y_kaLx-2">
                    <mxGeometry width="50" height="50" relative="1" as="geometry">
                        <mxPoint x="360" y="200" as="sourcePoint"/>
                        <mxPoint x="410" y="150" as="targetPoint"/>
                        <Array as="points">
                            <mxPoint x="460" y="129"/>
                        </Array>
                    </mxGeometry>
                </mxCell>
            </root>
        </mxGraphModel>
    </diagram>
</mxfile>